<svg width="69" height="69" viewBox="0 0 69 69" fill="none" xmlns="http://www.w3.org/2000/svg">
<path d="M34.5029 25.875C32.2154 25.875 30.0216 26.7837 28.4041 28.4012C26.7866 30.0187 25.8779 32.2125 25.8779 34.5C25.8779 36.7875 26.7866 38.9813 28.4041 40.5988C30.0216 42.2163 32.2154 43.125 34.5029 43.125C36.7904 43.125 38.9842 42.2163 40.6017 40.5988C42.2192 38.9813 43.1279 36.7875 43.1279 34.5C43.1279 32.2125 42.2192 30.0187 40.6017 28.4012C38.9842 26.7837 36.7904 25.875 34.5029 25.875ZM34.5029 20.125C38.3154 20.125 41.9717 21.6395 44.6675 24.3353C47.3634 27.0312 48.8779 30.6875 48.8779 34.5C48.8779 38.3125 47.3634 41.9688 44.6675 44.6647C41.9717 47.3605 38.3154 48.875 34.5029 48.875C30.6904 48.875 27.0341 47.3605 24.3382 44.6647C21.6424 41.9688 20.1279 38.3125 20.1279 34.5C20.1279 30.6875 21.6424 27.0312 24.3382 24.3353C27.0341 21.6395 30.6904 20.125 34.5029 20.125ZM53.1904 19.4062C53.1904 20.3594 52.8117 21.2735 52.1378 21.9474C51.4638 22.6214 50.5497 23 49.5966 23C48.6435 23 47.7294 22.6214 47.0555 21.9474C46.3815 21.2735 46.0029 20.3594 46.0029 19.4062C46.0029 18.4531 46.3815 17.539 47.0555 16.8651C47.7294 16.1911 48.6435 15.8125 49.5966 15.8125C50.5497 15.8125 51.4638 16.1911 52.1378 16.8651C52.8117 17.539 53.1904 18.4531 53.1904 19.4062ZM34.5029 11.5C27.3901 11.5 26.2286 11.5201 22.9195 11.6668C20.6655 11.7731 19.1532 12.075 17.7502 12.6212C16.5768 13.0536 15.5156 13.7443 14.6452 14.6424C13.7462 15.5124 13.0544 16.5736 12.6212 17.7474C12.075 19.1561 11.7731 20.6655 11.6696 22.9166C11.5201 26.0906 11.5 27.2004 11.5 34.5C11.5 41.6156 11.5201 42.7742 11.6668 46.0834C11.7731 48.3345 12.075 49.8496 12.6184 51.2498C13.1071 52.5004 13.6821 53.4002 14.6366 54.3548C15.6055 55.3208 16.5054 55.8986 17.7416 56.3759C19.1619 56.925 20.6741 57.2297 22.9166 57.3332C26.0906 57.4827 27.2004 57.5 34.5 57.5C41.6156 57.5 42.7742 57.4799 46.0834 57.3332C48.3316 57.2269 49.8439 56.925 51.2498 56.3816C52.4232 55.9493 53.4844 55.2586 54.3548 54.3605C55.3236 53.3945 55.9015 52.4946 56.3788 51.2555C56.925 49.841 57.2297 48.3288 57.3332 46.0805C57.4827 42.9094 57.5 41.7967 57.5 34.5C57.5 27.3873 57.4799 26.2257 57.3332 22.9166C57.2269 20.6684 56.9221 19.1504 56.3788 17.7474C55.9464 16.5739 55.2557 15.5127 54.3576 14.6424C53.4876 13.7433 52.4264 13.0515 51.2526 12.6184C49.8439 12.0721 48.3316 11.7703 46.0834 11.6668C42.9122 11.5173 41.8025 11.5 34.5 11.5M34.5 5.75C42.3114 5.75 43.286 5.77875 46.3536 5.9225C49.4126 6.06625 51.4999 6.54638 53.3312 7.25938C55.2287 7.98963 56.8273 8.97862 58.4258 10.5742C59.8882 12.011 61.0195 13.7496 61.7406 15.6687C62.4508 17.5001 62.9338 19.5874 63.0775 22.6493C63.2126 25.714 63.25 26.6886 63.25 34.5C63.25 42.3114 63.2213 43.286 63.0775 46.3507C62.9338 49.4155 62.4508 51.497 61.7406 53.3312C61.0195 55.2504 59.8882 56.989 58.4258 58.4258C56.989 59.8882 55.2504 61.0195 53.3312 61.7406C51.4999 62.4508 49.4126 62.9338 46.3536 63.0775C43.286 63.2126 42.3114 63.25 34.5 63.25C26.6886 63.25 25.714 63.2213 22.6464 63.0775C19.5874 62.9338 17.503 62.4508 15.6687 61.7406C13.7496 61.0195 12.011 59.8882 10.5742 58.4258C9.11176 56.989 7.98047 55.2504 7.25938 53.3312C6.54638 51.4999 6.06625 49.4126 5.9225 46.3507C5.7845 43.286 5.75 42.3114 5.75 34.5C5.75 26.6886 5.77875 25.714 5.9225 22.6493C6.06625 19.5845 6.54638 17.503 7.25938 15.6687C7.98047 13.7496 9.11176 12.011 10.5742 10.5742C12.011 9.11176 13.7496 7.98047 15.6687 7.25938C17.5001 6.54638 19.5845 6.06625 22.6464 5.9225C25.7169 5.78737 26.6915 5.75 34.5029 5.75" fill="white"/>
</svg>
